<svg version="1.2" xmlns="http://www.w3.org/2000/svg" viewBox="0 0 40 41" width="40" height="41"><style>.a{fill:#fff}</style><path fill-rule="evenodd" class="a" d="m28.2 0.3c2.2 0.1 3.6 0.5 4.9 1 1.3 0.5 2.4 1.2 3.5 2.3 1.2 1.1 1.8 2.2 2.4 3.5 0.4 1.3 0.8 2.7 0.9 4.9 0.1 2.1 0.1 2.8 0.1 8.2 0 5.4 0 6.1-0.1 8.3-0.1 2.1-0.5 3.5-0.9 4.8-0.6 1.3-1.2 2.4-2.4 3.6-1.1 1.1-2.2 1.7-3.5 2.3-1.3 0.5-2.7 0.8-4.9 0.9-2.1 0.1-2.8 0.1-8.2 0.1-5.4 0-6.1 0-8.2-0.1-2.2-0.1-3.6-0.4-4.9-0.9-1.3-0.6-2.4-1.2-3.5-2.3-1.2-1.2-1.8-2.3-2.4-3.6-0.4-1.3-0.8-2.7-0.9-4.8-0.1-2.2-0.1-2.9-0.1-8.3 0-5.4 0-6.1 0.1-8.2 0.1-2.2 0.5-3.6 0.9-4.9 0.6-1.3 1.2-2.4 2.4-3.5 1.1-1.1 2.2-1.8 3.5-2.3 1.3-0.5 2.7-0.9 4.9-1 2.1-0.1 2.8-0.1 8.2-0.1 5.4 0 6.1 0 8.2 0.1zm-16.3 3.6c-1.9 0.1-3 0.4-3.7 0.7-0.9 0.4-1.6 0.8-2.3 1.5-0.7 0.7-1.1 1.4-1.5 2.3-0.3 0.7-0.6 1.8-0.7 3.7-0.1 2.1-0.1 2.8-0.1 8.1 0 5.4 0 6 0.1 8.1 0.1 1.9 0.4 3 0.7 3.7 0.4 0.9 0.8 1.6 1.5 2.3 0.7 0.7 1.4 1.1 2.3 1.5 0.7 0.3 1.8 0.6 3.7 0.7 2.1 0.1 2.8 0.1 8.1 0.1 5.3 0 6 0 8.1-0.1 1.9-0.1 3-0.4 3.7-0.7 0.9-0.4 1.6-0.8 2.3-1.5 0.7-0.7 1.1-1.4 1.5-2.3 0.3-0.7 0.6-1.8 0.7-3.7 0.1-2.1 0.1-2.7 0.1-8.1 0-5.3 0-6-0.1-8.1-0.1-1.9-0.4-3-0.7-3.7-0.4-0.9-0.8-1.6-1.5-2.3-0.7-0.7-1.4-1.1-2.3-1.5-0.7-0.3-1.8-0.6-3.7-0.7-2.1-0.1-2.8-0.1-8.1-0.1-5.3 0-6 0-8.1 0.1z"/><path fill-rule="evenodd" class="a" d="m20 30.5c-5.7 0-10.3-4.6-10.3-10.3 0-5.7 4.6-10.3 10.3-10.3 5.7 0 10.3 4.6 10.3 10.3 0 5.7-4.6 10.3-10.3 10.3zm6.7-10.3c0-3.7-3-6.7-6.7-6.7-3.7 0-6.7 3-6.7 6.7 0 3.7 3 6.7 6.7 6.7 3.7 0 6.7-3 6.7-6.7z"/><circle class="a" cx="30.7" cy="9.5" r="2.4"/></svg>